# xmcd
#
# Track frame offsets:
#	150
#	12587
#	25525
#	36983
#	50346
#	61999
#	74553
#	86269
#	99520
#	113010
#	126546
#
# Disc length: 1860 seconds
#
# Revision: 0
# Processed by: cddbd v1.5.1PL0 Copyright (c) Steve Scherf et al.
# Submitted via: dBpowerAMP V4.0
#
DISCID=9007420b
DTITLE=Merle Haggard - If we Make it Through December
DYEAR=1900
DGENRE=Country
TTITLE0=If we Make it Through December
TTITLE1=Love And Honor
TTITLE2=To Each His Own
TTITLE3=You're The Only Girl in The Game
TTITLE4=I'm an Old, Old Man
TTITLE5=Come on in to my Arms
TTITLE6=Better Off When I Was Hungry
TTITLE7=I'll Break Out Again Tonight
TTITLE8=This Cold War(72) 
TTITLE9=Uncle Lem
TTITLE10=There's Just One Way
EXTD=
EXTT0=
EXTT1=
EXTT2=
EXTT3=
EXTT4=
EXTT5=
EXTT6=
EXTT7=
EXTT8=
EXTT9=
EXTT10=
PLAYORDER=
